<svg xmlns="http://www.w3.org/2000/svg" width="461" height="170">
    <defs>
        <style type="text/css">
            @namespace "http://www.w3.org/2000/svg";
                .line                 {fill: none; stroke: #636273;}
                .bold-line            {stroke: #636273; shape-rendering: crispEdges; stroke-width: 2; }
                .thin-line            {stroke: #636273; shape-rendering: crispEdges}
                .filled               {fill: #636273; stroke: none;}
                text.terminal         {font-family: -apple-system, BlinkMacSystemFont, "Segoe UI", Roboto, Ubuntu, Cantarell, Helvetica, sans-serif;
                font-size: 12px;
                fill: #ffffff;
                font-weight: bold;
                }
                text.nonterminal      {font-family: -apple-system, BlinkMacSystemFont, "Segoe UI", Roboto, Ubuntu, Cantarell, Helvetica, sans-serif;
                font-size: 12px;
                fill: #e289a4;
                font-weight: normal;
                }
                text.regexp           {font-family: -apple-system, BlinkMacSystemFont, "Segoe UI", Roboto, Ubuntu, Cantarell, Helvetica, sans-serif;
                font-size: 12px;
                fill: #00141F;
                font-weight: normal;
                }
                rect, circle, polygon {fill: none; stroke: none;}
                rect.terminal         {fill: none; stroke: #be2f5b;}
                rect.nonterminal      {fill: rgba(255,255,255,0.1); stroke: none;}
                rect.text             {fill: none; stroke: none;}
                polygon.regexp        {fill: #C7ECFF; stroke: #038cbc;}
        </style>
    </defs>
    <polygon points="9 17 1 13 1 21"/>
         <polygon points="17 17 9 13 9 21"/>
         <rect x="31" y="3" width="62" height="32" rx="10"/>
         <rect x="29" y="1" width="62" height="32" class="terminal" rx="10"/>
         <text class="terminal" x="39" y="21">ALTER</text>
         <rect x="113" y="3" width="62" height="32" rx="10"/>
         <rect x="111" y="1" width="62" height="32" class="terminal" rx="10"/>
         <text class="terminal" x="121" y="21">TABLE</text><a xmlns:xlink="http://www.w3.org/1999/xlink" xlink:href="#tableName" xlink:title="tableName">
            <rect x="195" y="3" width="88" height="32"/>
            <rect x="193" y="1" width="88" height="32" class="nonterminal"/>
            <text class="nonterminal" x="203" y="21">tableName</text></a><rect x="323" y="3" width="48" height="32" rx="10"/>
         <rect x="321" y="1" width="48" height="32" class="terminal" rx="10"/>
         <text class="terminal" x="331" y="21">ADD</text>
         <rect x="323" y="47" width="58" height="32" rx="10"/>
         <rect x="321" y="45" width="58" height="32" class="terminal" rx="10"/>
         <text class="terminal" x="331" y="65">DROP</text>
         <rect x="323" y="91" width="62" height="32" rx="10"/>
         <rect x="321" y="89" width="62" height="32" class="terminal" rx="10"/>
         <text class="terminal" x="331" y="109">ALTER</text>
         <rect x="323" y="135" width="74" height="32" rx="10"/>
         <rect x="321" y="133" width="74" height="32" class="terminal" rx="10"/>
         <text class="terminal" x="331" y="153">ATTACH</text>
         <svg:path xmlns:svg="http://www.w3.org/2000/svg" class="line" d="m17 17 h2 m0 0 h10 m62 0 h10 m0 0 h10 m62 0 h10 m0 0 h10 m88 0 h10 m20 0 h10 m48 0 h10 m0 0 h26 m-114 0 h20 m94 0 h20 m-134 0 q10 0 10 10 m114 0 q0 -10 10 -10 m-124 10 v24 m114 0 v-24 m-114 24 q0 10 10 10 m94 0 q10 0 10 -10 m-104 10 h10 m58 0 h10 m0 0 h16 m-104 -10 v20 m114 0 v-20 m-114 20 v24 m114 0 v-24 m-114 24 q0 10 10 10 m94 0 q10 0 10 -10 m-104 10 h10 m62 0 h10 m0 0 h12 m-104 -10 v20 m114 0 v-20 m-114 20 v24 m114 0 v-24 m-114 24 q0 10 10 10 m94 0 q10 0 10 -10 m-104 10 h10 m74 0 h10 m23 -132 h-3"/>
         <polygon points="435 17 443 13 443 21"/>
         <polygon points="435 17 427 13 427 21"/></svg>
