<svg width="18" height="18" viewBox="0 0 18 18" fill="none" xmlns="http://www.w3.org/2000/svg">
<path d="M12.6562 4.76895H12.3749V3.57672C12.3749 1.60091 10.8643 0 8.99994 0C7.13557 0 5.62494 1.60091 5.62494 3.57672V4.76895H5.34369C4.77129 4.77012 4.22198 5.00298 3.80559 5.41863L0 3.46029V6.11022L3.09375 7.7018V9.53791H0V11.9224H3.10809C3.12897 12.4929 3.22345 13.0576 3.38934 13.6001L0 15.3501V18L4.5 15.6807C5.61951 17.0779 7.26086 17.8836 8.99016 17.8836C10.7194 17.8836 12.3618 17.0779 13.4803 15.6807L17.9803 18V15.3501L14.5997 13.6001C14.7656 13.0576 14.8601 12.4929 14.8809 11.9224H18V9.53791H14.9062V7.7018L18 6.11022V3.46029L14.1944 5.41863C13.778 5.00299 13.2287 4.77012 12.6563 4.76895H12.6562ZM7.87494 15.308C6.36652 14.7911 5.34479 13.3043 5.34369 11.6243V7.15343H7.87494V15.308ZM7.87494 4.76895V3.57672C7.87494 2.91774 8.37813 2.38448 8.99994 2.38448C9.62176 2.38448 10.1249 2.91774 10.1249 3.57672V4.76895H7.87494ZM12.6562 11.6243C12.6551 13.3044 11.6334 14.7912 10.1249 15.308V7.15343H12.6562V11.6243Z" fill="white"/>
</svg>
